<mxfile host="app.diagrams.net" modified="2023-11-30T15:51:42.740Z" agent="Mozilla/5.0 (Macintosh; Intel Mac OS X 10_15_7) AppleWebKit/537.36 (KHTML, like Gecko) Chrome/119.0.0.0 Safari/537.36" version="22.1.5" etag="OE41WbImYnKBjpmo5LTS" type="github">
  <diagram name="Page-1" id="tQth-8ipSbE2NQiPwx3c">
    <mxGraphModel>
      <root>
        <mxCell id="0" />
        <mxCell id="1" parent="0" />
      </root>
    </mxGraphModel>
  </diagram>
</mxfile>
